<?xml version="1.0" encoding="UTF-8" standalone="no"?><!-- Generator: Gravit.io --><svg xmlns="http://www.w3.org/2000/svg" xmlns:xlink="http://www.w3.org/1999/xlink" style="isolation:isolate" viewBox="0 0 1000 1000" width="1000pt" height="1000pt"><defs><clipPath id="_clipPath_Uf0MresCFvT3Js1mw0ZQYUGydulr9rzX"><rect width="1000" height="1000"/></clipPath></defs><g clip-path="url(#_clipPath_Uf0MresCFvT3Js1mw0ZQYUGydulr9rzX)"><clipPath id="_clipPath_85TFfqoZF8lhYdkpnWiCcvlZxltfENbG"><path d=" M -194.75 1194.75 L 1194.75 1194.75 L 1194.75 -194.75 L -194.75 -194.75 L -194.75 1194.75 Z " fill="rgb(255,255,255)"/></clipPath><g clip-path="url(#_clipPath_85TFfqoZF8lhYdkpnWiCcvlZxltfENbG)"><path d=" M 156.773 969.302 L 209.141 928.32 L 209.05 928.32 C 136.692 928.32 96.548 899.103 75.614 874.595 C 53.488 848.689 37.444 799.252 35.687 793.701 L 22.075 750.681 L 61.613 772.424 C 61.765 772.506 73.733 779.03 90.819 785.977 L 98.011 752.772 C 97.881 751.816 97.761 750.876 97.65 749.94 L 94.335 721.813 L 64.006 712.468 C 64.006 712.468 77.173 651.689 77.727 649.121 C 79.999 638.64 85.175 628.737 92.455 620.824 C 96.077 612.304 96.185 611.277 100.287 605.139 L 72.497 610.697 C 73.959 608.813 130.941 542.121 185.137 542.121 C 188.978 542.121 192.868 542.349 196.703 542.798 L 206 543.885 L 209.421 550.335 C 210.355 551.284 213.166 553.546 218.742 553.546 C 221.124 553.546 223.775 553.139 226.625 552.336 C 235.541 549.819 264.248 538.427 289.65 516.21 C 311.28 497.292 324.24 476.176 328.367 453.213 L 319.611 450.363 C 319.63 450.074 321.619 413.59 298.672 402.792 C 290.977 399.171 281.852 397.41 270.776 397.41 C 256.097 397.41 240.4 400.555 226.551 403.33 C 213.937 405.857 203.042 408.039 193.291 408.039 C 187.794 408.039 182.961 407.316 178.706 405.849 C 174.682 406.387 170.682 406.658 166.753 406.658 C 145.113 406.658 127.652 398.539 119.169 385.017 C 107.61 377.724 93.276 362.306 91.438 337.206 L 90.711 327.277 L 98.716 321.36 C 101.518 319.289 114.955 309.675 127.83 305.863 C 133.969 301.606 150.204 290.176 166.943 276.923 C 198.731 251.755 207.693 239.622 210.108 235.466 C 213.208 203.453 233.007 180.48 256.318 154.69 C 255.765 139.498 252.321 114.781 242.826 104.971 L 228.831 90.507 L 244.716 78.151 C 246.774 76.548 257.99 68.677 279.627 68.391 C 280.104 61.82 280.322 54.844 279.765 49.833 L 277.19 26.682 L 300.252 29.952 C 314.379 31.954 338.523 41.992 360.618 59.904 C 378.605 74.486 400.768 98.921 407.615 134.192 C 418.945 137.814 432.686 143.265 447.905 149.303 C 473.319 159.384 541.612 181.828 556.97 182.73 L 523.291 198.395 C 553.852 218.996 661.672 271.919 708.888 276.29 L 666.811 294.578 C 666.629 294.657 665.394 295.189 663.302 295.976 C 682.677 310.036 711.859 326.032 745.363 327.149 C 762.048 327.703 788.536 345.1 807.383 362.095 C 820.294 373.738 840.535 395.025 848.589 420.002 C 859.638 421.618 869.537 427.126 876.42 435.661 C 885.156 446.493 888.168 460.758 884.903 475.83 C 884.019 479.92 866.091 562.693 866.091 562.693 L 854.902 569.79 C 855.415 570.613 855.954 571.437 856.518 572.257 C 871.526 577.912 886.168 585.853 896.86 601.258 L 907.217 547.407 L 929.916 606.113 C 944.756 644.493 947.559 684.402 937.808 718.488 C 931.4 740.885 919.778 760.009 904.601 773.788 C 907.731 775.535 911.07 777.289 914.637 779.16 C 916.58 780.18 918.557 781.22 920.57 782.292 L 955.361 800.848 L 918.592 815.077 C 877.932 830.812 836.775 838.791 796.275 838.791 L 796.253 838.791 C 754.25 838.788 712.022 829.969 674.131 813.286 C 645.956 800.881 628.535 787.864 625.411 785.056 L 624.739 784.453 C 606.382 800.174 587.949 817.296 570.015 833.952 C 521.618 878.906 479.856 917.696 442.909 928.166 L 371.901 948.283 L 385.672 923.171 C 371.595 931.347 358.894 937.638 348.499 942.313 C 310.931 959.212 272.766 969.302 246.406 969.302 L 156.773 969.302 Z " fill="rgb(240,239,240)"/><path d=" M 127.894 628.818 C 127.853 597.628 197.259 583.962 200.214 583.396 L 202.584 582.941 L 202.585 589.124 L 174.32 606.732 L 223.403 591.393 L 223.531 591.371 C 292.607 579.321 327.709 539.107 344.994 507.495 C 363.78 473.133 366.221 441.176 366.244 440.856 L 366.745 433.738 L 385.303 469.821 C 392.625 427.454 384.245 400.095 375.681 384.409 C 370.416 374.764 364.465 368.275 360.12 364.356 C 365.675 379.219 364.301 393.91 364.229 394.629 L 363.467 402.258 L 360.413 395.225 C 345.234 360.266 311.069 355.047 292.054 355.047 C 290.205 355.047 288.516 355.097 287.027 355.172 C 291.69 358.311 295.057 362.312 295.257 362.552 L 298.415 366.341 L 293.51 365.813 C 286.454 365.053 279.51 364.668 272.869 364.668 C 248.261 364.668 231.771 369.8 219.729 373.546 C 217.117 374.359 214.65 375.126 212.423 375.733 C 209.354 376.571 206.166 376.995 202.948 376.995 C 192.243 376.995 184.571 372.381 184.248 372.185 L 180.435 369.854 L 184.716 368.571 C 188.531 367.426 194.767 365.052 201.988 362.303 C 219.986 355.452 244.554 346.1 262.067 343.801 C 265.549 340.469 267.029 337.333 266.466 334.472 C 265.563 329.875 259.481 326.336 256.181 324.887 C 226.867 349.663 180.366 364.257 179.894 364.403 L 174.326 366.129 L 177.669 361.352 C 179.338 358.966 179.923 356.816 180.042 355.128 C 171.533 364.841 163.677 369.758 156.654 369.758 C 153.422 369.758 150.431 368.73 147.766 366.7 L 146.091 365.424 L 147.454 363.819 C 159.958 349.1 187.484 329.122 188.65 328.279 L 194.207 324.257 L 189.161 336.957 C 208.926 326.328 250.099 315.08 275.775 308.667 C 240.224 312.584 205.913 323.731 205.499 323.867 L 198.498 326.164 L 210.556 312.548 C 184.461 320.992 161.096 341.22 148.976 353.117 L 145.888 350.632 C 152.249 340.516 151.995 335.79 151.31 334.684 L 148.979 333.267 L 151.424 331.687 C 157.802 326.419 165.109 320.572 172.845 314.381 C 198.361 293.959 230.118 268.544 245.201 250.05 L 247.198 247.601 L 249.821 253.139 C 250.482 252.69 251.142 252.247 251.802 251.808 L 253.172 250.897 L 254.328 252.067 C 265.464 263.347 278.019 265.715 286.586 265.714 C 298.261 265.714 309.502 261.334 316.606 254.384 C 306.048 257.809 297.647 258.12 294.975 258.12 C 294.424 258.12 294.131 258.108 294.131 258.108 L 293.569 254.227 C 306.287 249.855 316.706 233.583 320.597 226.79 L 321.146 225.832 L 322.251 225.788 C 323.243 225.747 324.218 225.728 325.173 225.728 C 328.576 225.728 331.741 225.977 334.628 226.467 C 330.535 219.716 323.972 216.423 314.679 216.423 C 291.844 216.423 261.61 236.909 261.308 237.116 L 260.03 237.989 L 258.867 236.97 C 254.865 233.469 259.294 223.709 263.443 216.513 C 259.479 218.943 255.999 222.561 253.053 227.33 L 249.527 225.483 C 261.905 197.089 294.466 164.554 299.67 159.461 C 298.76 137.442 311.84 81.705 312.406 79.309 L 313.167 76.083 L 315.662 78.266 C 321.311 83.208 326.976 107.808 327.604 110.597 L 327.777 111.362 L 327.381 112.04 C 316.602 130.519 313.053 155.833 312.042 165.611 L 318.691 161.177 L 327.492 185.696 C 352.989 143.871 339.194 96.795 339.048 96.313 L 342.439 94.397 C 372.582 127.781 373.162 157.847 368.34 177.19 C 364.765 191.531 357.916 202.077 353.78 207.481 C 363.005 205.608 382.365 198.667 388.136 173.173 L 388.556 171.324 L 390.426 171.647 C 420.63 176.9 457.552 201.496 496.64 227.539 C 529.157 249.201 562.78 271.602 593.11 282.792 L 600.035 285.347 L 592.767 286.63 C 585.033 287.994 578.163 289.057 572.248 289.806 C 611.028 308.298 662.729 362.028 665.043 364.443 L 668.47 368.025 L 629.091 366.383 C 658.839 392.935 686.026 404.828 716.659 404.826 C 724.07 404.825 731.838 404.187 740.722 402.832 C 705.184 385.455 673.183 354.275 672.848 353.944 L 669.36 350.523 L 674.244 350.523 C 674.69 350.523 685.802 350.705 740.658 366.568 C 780.666 378.135 798.762 418.061 805.987 440.83 L 806.589 442.726 L 804.695 443.335 C 768.744 454.877 702.072 474.283 606.528 501.013 L 606.352 501.063 L 606.171 501.078 C 600.334 501.609 594.465 501.877 588.726 501.877 L 588.719 501.877 C 551.853 501.877 529.913 491.136 528.997 490.678 L 526.029 489.198 L 544.472 476.023 C 513.99 475.503 473.288 461.657 443.414 451.497 C 438.824 449.935 434.607 448.501 430.764 447.23 C 452.555 468.656 494.373 488.87 494.829 489.09 L 497.368 490.308 L 482.345 505.332 C 500.479 514.618 511.163 519.62 516.995 522.203 L 522.102 524.466 L 516.717 525.952 C 353.912 570.866 179.87 617.516 130.406 630.742 L 127.897 631.413 L 127.894 628.818 Z " fill="rgb(255,104,32)"/><path d=" M 266.926 927.661 C 270.092 923.929 274.184 919.82 278.515 915.471 C 290.667 903.267 305.607 888.266 314.394 868.253 C 263.961 885.018 220.063 886.868 203.227 886.868 C 152.868 886.868 117.187 869.655 94.145 834.246 L 91.052 829.493 L 96.439 831.26 C 110.815 835.977 137.571 844.756 171.709 844.756 C 194.009 844.755 216.31 840.998 238.089 833.579 C 211.642 825.935 189.086 813.433 177.541 806.339 L 178.981 802.684 C 194.237 805.759 210.777 807.318 228.136 807.318 C 332.616 807.309 444.026 754.601 478.835 733.98 C 467.923 726.428 451.275 724.139 438.894 722.439 C 433.876 721.749 429.544 721.153 426.573 720.325 L 426.762 716.436 C 439.89 714.122 474.102 709.54 488.807 708.127 C 524.474 704.702 561.354 701.158 587.564 685.508 L 598.938 678.715 L 590.262 668.704 C 586.699 664.594 582.225 660.924 576.967 657.8 L 572.629 655.223 L 577.557 654.135 C 601.269 648.908 628.501 646.258 658.494 646.258 C 684.346 646.258 706.791 648.177 723.455 649.848 L 756.33 653.151 L 732.117 630.669 C 728.485 627.297 723.734 624.127 717.997 621.247 L 712.324 618.398 L 718.605 617.487 C 731.197 615.662 743.407 614.737 754.896 614.737 C 810.507 614.737 835.161 636.617 836.184 637.55 L 836.282 637.646 L 853.209 655.358 L 855.117 630.561 C 855.41 626.733 854.92 622.443 853.658 617.809 L 851.981 611.652 L 856.866 615.757 C 877.846 633.379 884.755 659.93 876.847 692.545 L 868.049 728.844 L 895.247 703.245 C 898.015 700.64 900.779 697.653 903.46 694.368 L 906.934 696.146 C 900.683 719.422 889.197 736.785 871.826 749.227 C 859.213 758.26 843.587 764.642 822.921 769.16 C 839.527 780.336 854.251 787.764 860.007 789.94 L 867.025 792.596 L 859.616 793.777 C 841.635 796.648 823.82 798.102 806.661 798.102 C 751.488 798.102 710.62 783.108 686.055 770.528 L 682.642 768.781 L 686.03 766.987 C 696.337 761.528 703.484 753.352 707.662 747.452 L 708.35 746.482 L 709.526 746.624 C 717.508 747.575 729.566 748.707 741.685 748.707 C 754.047 748.707 763.702 747.562 771.195 745.205 C 788.909 739.639 790.822 727.613 790.822 722.701 C 790.822 694.283 770.813 679.261 732.958 679.261 C 701.066 679.261 663.433 697.844 614.526 737.742 L 609.214 742.121 C 586.98 760.618 564.315 781.67 542.397 802.026 C 513.003 829.331 485.247 855.111 461.601 871.683 L 458.755 869.004 C 467.142 855.35 476.353 828.573 469.796 807.372 C 449.168 844.253 336.811 910.527 269.022 930.864 L 262.566 932.799 L 266.926 927.661 Z " fill="rgb(255,104,32)"/><path d=" M 280.755 253.065 C 280.755 253.065 301.881 243.263 305.913 229.991 C 293.296 232.76 278.953 238.152 264.113 246.577 C 266.216 249.588 270.845 253.406 280.755 253.065 Z " fill="rgb(255,255,255)"/><path d=" M 138.725 361.167 C 138.725 361.167 173.65 333.227 195.604 321.252 L 195.604 330.232 C 195.604 330.232 225.54 312.272 295.39 306.284 L 289.403 312.272 C 289.403 312.272 386.197 308.28 406.153 388.109 C 406.153 388.109 396.175 376.134 388.192 374.139 C 388.192 374.139 429.103 453.969 382.205 516.832 L 381.207 497.874 C 381.207 497.874 351.27 557.746 284.414 591.674 L 170.657 629.593 L 118.768 638.573 C 118.768 638.573 137.728 588.679 164.67 582.693 L 216.56 581.694 L 287.407 552.757 C 287.407 552.757 355.262 504.859 357.257 436.007 C 357.257 436.007 339.297 374.139 311.355 373.141 C 311.355 373.141 254.478 368.152 197.6 381.124 L 173.65 375.137 L 148.705 376.134 C 148.705 376.134 142.717 375.137 138.725 361.167 Z " fill="rgb(255,255,255)"/><path d=" M 148.038 340.544 C 148.038 340.544 225.873 286.808 249.82 253.139 L 241.837 243.419 C 241.837 243.419 173.983 311.273 134.068 340.544 L 148.038 340.544 Z " fill="rgb(255,255,255)"/><path d=" M 258.968 221.466 C 258.968 221.466 281.419 179.556 304.371 165.586 C 304.371 165.586 306.865 113.696 323.33 88.25 L 311.356 68.293 C 311.356 68.293 298.883 107.21 295.389 153.611 C 295.389 153.611 253.978 175.564 244.499 227.952 L 247.992 235.436 L 258.968 221.466 Z " fill="rgb(255,255,255)"/><path d=" M 327.821 189.534 C 327.821 189.534 341.791 183.546 351.27 157.603 L 351.769 175.564 C 351.769 175.564 365.74 153.112 356.758 114.694 L 340.294 87.751 L 333.808 96.732 C 333.808 96.732 344.784 134.152 327.821 189.534 Z " fill="rgb(255,255,255)"/><path d=" M 249.488 255.725 L 251.817 255.393 C 251.817 255.393 261.462 273.688 293.062 273.688 L 287.074 271.027 C 287.074 271.027 315.014 268.696 321.999 251.401 C 321.999 251.401 305.036 262.378 292.396 262.045 C 279.757 261.713 271.109 257.389 271.109 257.389 L 257.803 249.073 L 251.484 249.073 L 249.488 255.725 Z " fill="rgb(132,51,14)"/><path d=" M 299.049 257.721 C 299.049 257.721 317.675 249.405 323.663 235.769 C 323.663 235.769 329.65 228.782 337.965 228.782 C 337.965 228.782 325.991 219.802 317.01 221.465 C 317.01 221.465 309.36 240.758 301.71 246.08 C 294.059 251.402 283.082 257.721 283.082 257.721 L 299.049 257.721 Z " fill="rgb(132,51,14)"/><path d=" M 348.776 210.489 C 348.776 210.489 372.225 212.152 402.162 190.531 C 429.436 191.529 489.308 250.736 557.829 277.346 C 540.366 275.351 534.792 277.247 522.904 279.84 C 581.777 303.291 620.694 339.213 657.195 372.238 L 678.148 375.231 L 607.802 300.395 L 604.809 277.943 C 604.809 277.943 506.024 231.545 476.092 203.106 L 398.262 164.192 L 377.308 161.199 C 377.308 161.199 395.08 169.975 348.776 210.489 Z " fill="rgb(132,51,14)"/><path d=" M 425.112 442.991 C 425.112 442.991 487.977 456.961 522.904 453.968 L 510.929 459.954 C 510.929 459.954 580.779 469.934 612.711 465.943 L 584.77 476.919 C 584.77 476.919 632.669 487.896 656.617 487.896 L 650.631 503.861 L 525.897 519.828 L 511.927 491.886 C 511.927 491.886 477.002 466.941 425.112 442.991 Z " fill="rgb(132,51,14)"/><path d=" M 745.427 402.079 L 714.493 372.143 C 714.493 372.143 742.434 371.144 759.397 389.107 C 776.362 407.069 791.328 458.958 791.328 458.958 L 819.269 444.987 L 783.345 382.121 C 783.345 382.121 701.52 336.221 662.605 340.211 L 678.149 375.23 C 678.149 375.23 710.501 406.071 745.427 402.079 Z " fill="rgb(132,51,14)"/><path d=" M 478.835 733.98 C 478.835 733.98 443.074 769.293 366.239 806.213 C 366.239 806.213 410.144 804.219 433.096 791.247 L 403.16 829.165 C 403.16 829.165 452.055 822.18 468.021 804.219 C 468.021 804.219 469.018 832.158 455.048 844.133 C 441.078 856.107 332.311 915.978 332.311 915.978 L 256.474 934.939 L 280.423 893.028 C 280.423 893.028 145.71 931.945 80.849 833.157 L 79.851 820.185 C 79.851 820.185 165.668 845.13 197.599 835.152 L 152.696 790.248 L 170.657 786.257 C 170.657 786.257 225.536 802.027 310.358 785.258 C 396.174 768.295 478.835 733.98 478.835 733.98 Z " fill="rgb(255,255,255)"/><path d=" M 686.03 766.988 C 686.03 766.988 773.367 800.227 848.207 782.265 L 874.152 794.24 C 874.152 794.24 828.251 830.163 679.569 775.28 L 686.03 766.988 Z " fill="rgb(132,51,14)"/><path d=" M 817.273 769.293 C 817.273 769.293 873.154 755.323 889.12 701.438 C 889.12 701.438 904.087 684.475 907.082 684.475 C 910.075 684.475 910.075 721.396 910.075 721.396 C 910.075 721.396 879.14 771.29 817.273 769.293 Z " fill="rgb(132,51,14)"/><path d=" M 850.203 633.583 C 850.203 633.583 874.919 687.397 868.05 728.845 L 894.11 690.463 C 894.11 690.463 893.111 612.628 847.21 605.643 L 850.203 633.583 Z " fill="rgb(132,51,14)"/><path d=" M 853.196 660.525 C 853.196 660.525 784.344 613.627 714.494 631.587 L 700.524 615.622 C 700.524 615.622 781.351 600.654 835.234 622.607 C 835.234 622.607 849.206 632.587 853.196 660.525 Z " fill="rgb(132,51,14)"/><path d=" M 774.365 686.47 C 774.365 686.47 747.423 659.527 664.6 680.482 L 679.568 683.477 C 679.568 683.477 617.701 715.408 561.82 757.319 L 579.781 752.329 C 579.781 752.329 475.006 848.124 456.046 860.099 L 455.048 878.061 L 565.811 794.241 C 565.811 794.241 653.623 705.431 697.529 698.444 C 741.435 691.459 763.39 697.447 763.39 697.447 L 774.365 686.47 Z " fill="rgb(132,51,14)"/><path d=" M 363.578 786.257 C 363.578 786.257 261.796 823.511 193.275 824.175 L 167.33 792.909 L 213.898 799.562 C 213.898 799.562 332.977 787.587 363.578 786.257 Z " fill="rgb(216,217,218)"/><path d=" M 243.169 833.488 C 243.169 833.488 208.576 856.773 148.038 856.106 L 177.31 868.747 L 165.335 868.747 C 165.335 868.747 247.161 884.714 317.011 864.089 C 317.011 864.089 300.379 881.388 286.409 886.709 C 272.439 892.031 164.669 906.001 132.073 882.051 C 99.475 858.103 79.851 820.185 79.851 820.185 L 185.292 833.488 C 185.292 833.488 214.563 844.799 243.169 833.488 Z " fill="rgb(216,217,218)"/><path d=" M 264.456 923.297 C 264.456 923.297 323.663 900.011 351.603 873.404 L 346.281 886.708 C 346.281 886.708 385.531 869.412 418.793 853.445 L 418.793 862.76 C 418.793 862.76 277.762 942.922 261.795 942.922 L 264.456 923.297 Z " fill="rgb(216,217,218)"/><path d=" M 200.589 585.355 C 200.589 585.355 120.764 600.655 130.742 634.582 L 97.813 662.521 C 97.813 662.521 110.782 604.648 134.731 594.005 C 134.731 594.005 117.433 594.005 108.786 599.327 C 108.786 599.327 143.382 554.753 194.606 560.739 C 194.606 560.739 205.582 577.038 231.526 569.721 C 257.471 562.402 353.595 517.5 347.608 429.023 C 347.608 429.023 347.608 435.675 337.63 451.642 C 337.63 451.642 341.098 402.793 306.363 386.448 C 261.127 365.16 199.259 399.753 181.297 387.112 C 158.013 391.77 137.392 385.117 132.734 371.811 C 132.734 371.811 111.45 363.159 109.453 335.886 C 109.453 335.886 124.753 324.578 135.398 322.583 C 135.398 322.583 218.162 266.427 227.866 240.092 C 229.531 210.489 249.154 189.534 274.434 161.592 C 274.434 161.592 275.764 113.031 255.806 92.408 C 255.806 92.408 267.781 83.094 295.721 87.752 C 295.721 87.752 299.381 62.805 297.717 47.837 C 318.84 50.831 382.954 82.51 390.851 143.632 C 399.168 207.993 348.941 210.155 348.941 210.155 C 348.941 210.155 398.17 159.098 340.958 95.734 C 340.958 95.734 356.259 146.293 326.988 190.198 L 317.674 164.253 L 309.691 169.576 C 309.691 169.576 311.688 134.983 325.657 111.035 C 325.657 111.035 319.669 84.425 314.348 79.768 C 314.348 79.768 300.377 138.974 301.709 160.263 C 301.709 160.263 239.51 220.135 247.492 250.404 C 228.244 274.571 181.094 309.766 152.696 333.226 C 152.696 333.226 158.016 337.882 143.381 357.84 C 143.381 357.84 154.024 384.449 181.299 350.521 C 181.299 350.521 183.96 355.845 179.303 362.496 C 179.303 362.496 226.537 347.86 255.806 322.581 C 255.806 322.581 278.925 331.064 262.96 345.7 C 238.511 348.693 198.594 366.491 185.289 370.482 C 185.289 370.482 197.263 377.799 211.898 373.808 C 226.534 369.816 250.481 359.174 293.723 363.829 C 293.723 363.829 287.072 355.846 279.753 353.851 C 279.753 353.851 340.291 343.871 362.244 394.431 C 362.244 394.431 364.239 374.472 354.925 357.843 C 354.925 357.843 404.156 386.113 386.196 475.921 L 368.234 440.996 C 368.234 440.996 359.253 569.721 223.873 593.338 L 160.01 613.294 L 200.589 588.016" fill="rgb(44,46,53)"/><path d=" M 268.551 212.034 C 268.551 212.034 255.718 231.563 260.181 235.469 C 260.181 235.469 322.999 192.526 338.299 229.332 C 320.004 224.126 284.746 231.111 249.022 256.114 L 244 245.512 C 244 245.512 248.463 218.171 268.551 212.034 Z " fill="rgb(44,46,53)"/><path d=" M 262.461 243.086 C 262.461 243.086 264.574 253.622 280.755 253.065 C 280.755 253.065 306.69 241.036 306.58 225.586 L 324.994 222.796 C 324.994 222.796 312.073 249.975 294.218 256.114 C 294.218 256.114 307.051 256.672 322.675 249.975 C 311.516 268.388 274.131 277.875 250.696 251.092 L 262.461 243.086 Z " fill="rgb(44,46,53)"/><path d=" M 136.726 363.178 C 136.726 363.178 173.766 319.08 216.559 308.779 L 204.876 321.971 C 204.876 321.971 255.591 305.33 298.384 305.33 C 298.384 305.33 209.075 325.243 185.127 341.708 L 189.819 329.895 C 189.819 329.895 152.575 356.837 144.651 371.102 L 136.726 363.178 Z " fill="rgb(44,46,53)"/><path d=" M 384.864 147.625 C 406.152 147.625 485.316 188.869 519.242 190.865 L 492.633 198.847 C 492.633 198.847 587.764 271.36 659.609 278.011 C 659.609 278.011 644.308 284.664 625.016 286.661 C 625.016 286.661 675.735 342.901 744.761 345.202 C 764.718 345.866 842.552 402.412 833.239 448.98 L 807.959 456.297 C 807.959 456.297 795.318 384.45 740.104 368.484 C 684.889 352.519 674.244 352.519 674.244 352.519 C 674.244 352.519 709.504 387.111 747.422 403.743 C 706.511 411.06 670.921 408.067 623.687 364.16 L 663.601 365.823 C 663.601 365.823 603.729 303.292 564.479 288.656 C 571.799 287.991 581.111 286.661 592.42 284.664 C 523.9 259.385 440.079 178.226 384.864 172.903 L 384.864 147.625 Z " fill="rgb(44,46,53)"/><path d=" M 830.815 432.106 C 766.456 459.045 115.774 632.586 115.774 632.586 L 96.814 663.52 L 842.22 460.953 C 842.22 460.953 835.805 445.077 830.815 432.106 Z " fill="rgb(44,46,53)"/><path d=" M 424.115 442.991 C 453.053 451.972 512.925 475.921 550.843 473.926 L 529.888 488.893 C 529.888 488.893 565.812 506.855 622.69 496.876 L 522.904 526.811 C 522.904 526.811 513.922 523.818 478.997 505.856 L 493.965 490.889 C 493.965 490.889 444.072 466.941 424.115 442.991 Z " fill="rgb(44,46,53)"/><path d=" M 641.611 747.471 L 649.566 749.719 C 652.784 750.628 655.902 751.089 658.838 751.089 C 677.324 751.089 686.617 732.418 687.003 731.624 L 691.103 722.884 L 700.602 724.473 C 700.78 724.501 719.135 727.367 736.915 727.367 C 752.979 727.367 759.289 725.058 761.35 723.99 C 761.188 716.888 758.96 706.738 728.359 706.738 C 703.043 706.738 672.898 723.645 641.611 747.471 Z  M 317.91 864.952 C 306.366 895.023 280.709 914.498 268.447 928.951 C 338.298 907.996 457.044 837.148 470.016 802.223 C 479.994 825.173 469.018 856.107 460.455 870.05 C 483.983 853.56 511.965 827.57 541.026 800.576 C 563.217 779.967 585.657 759.123 607.945 740.579 L 613.265 736.198 C 654.712 702.384 695.501 677.268 732.957 677.268 C 782.433 677.268 792.818 701.974 792.818 722.702 C 792.818 728.054 790.77 741.146 771.793 747.11 C 764.104 749.526 754.256 750.701 741.684 750.701 C 729.397 750.701 717.186 749.545 709.292 748.606 C 704.865 754.853 697.523 763.16 686.964 768.751 C 711.845 781.491 752.243 796.107 806.661 796.107 C 823.797 796.107 841.385 794.667 859.301 791.807 C 853.215 789.506 836.38 781.016 817.93 768.162 C 855.719 760.659 891.738 745.024 905.007 695.629 C 902.384 698.842 899.583 701.904 896.615 704.699 L 864.528 734.897 L 874.908 692.076 C 880.77 667.897 880.534 638.244 855.583 617.286 C 856.819 621.821 857.439 626.372 857.106 630.714 L 854.857 659.97 L 834.839 639.024 C 833.545 637.845 809.556 616.731 754.895 616.731 C 743.45 616.731 731.428 617.644 718.892 619.462 C 724.379 622.217 729.42 625.444 733.475 629.206 L 762.04 655.73 L 723.255 651.836 C 706.637 650.168 684.257 648.252 658.493 648.252 C 628.527 648.252 601.603 650.877 577.987 656.083 C 583.032 659.083 587.783 662.797 591.771 667.397 L 602.005 679.209 L 588.588 687.221 C 561.991 703.101 524.883 706.667 488.998 710.113 C 474.343 711.522 440.206 716.093 427.108 718.402 C 437.574 721.322 467.023 721.395 482.387 734.17 C 456.046 750.335 339.857 809.304 228.16 809.313 L 228.136 809.313 C 210.556 809.313 194.011 807.749 178.586 804.64 C 185.669 808.99 212.568 825.173 244.756 833.318 C 175.646 859.102 120.585 841.284 95.817 833.157 C 110.135 855.16 138.517 884.873 203.226 884.873 C 227.805 884.873 271.441 881.055 317.91 864.952 Z  M 246.405 951.238 L 209.165 951.238 L 238.492 928.288 C 247.34 921.361 255.448 913.12 262.23 905.361 C 243.366 908.617 225.571 910.256 209.05 910.256 C 143.574 910.256 107.815 884.482 89.349 862.863 C 68.965 838.997 52.909 788.253 52.909 788.253 C 52.909 788.253 112.781 821.182 160.844 820.564 C 134.132 800.743 119.766 783.263 115.589 747.825 C 138.726 767.298 198.687 784.826 233.469 784.826 L 233.49 784.826 C 303.208 784.819 377.757 757.474 419.009 739.617 C 413.356 739.255 393.181 738.358 372.663 741.235 C 393.181 701.438 445.416 691.664 486.743 687.693 C 509.676 685.492 533.165 683.236 552.417 677.618 C 544.007 674.892 535.556 673.84 531.686 673.684 L 475.236 671.444 L 527.111 649.068 C 550.553 638.954 578.308 632.274 609.991 629.095 L 600.498 627.882 L 658.995 610.566 C 691.586 600.922 722.159 596.033 749.865 596.033 C 775.778 596.033 795.982 600.319 811.051 605.615 C 809.645 603.703 808.247 601.928 806.927 600.367 L 779.242 567.664 L 820.341 579.744 C 853.828 589.593 875.629 595.326 887.123 620.611 C 890.109 627.178 893.273 646.273 894.6 653.646 C 899.099 649.549 908.078 638.573 913.068 612.628 C 942.006 687.468 917.06 753.328 873.257 773.149 C 884.13 784.262 897.102 790.248 912.072 798.231 C 750.915 860.598 639.83 773.728 637.484 771.622 L 625.148 760.524 C 602.465 779.16 579.518 800.473 557.682 820.754 C 511.034 864.083 470.747 901.502 437.984 910.786 L 408.482 919.145 L 423.227 892.258 C 428.064 883.435 432.033 874.521 435.256 866.147 C 400.396 895.751 366.219 914.537 341.091 925.838 C 299.455 944.569 264.88 951.238 246.405 951.238 Z " fill="rgb(44,46,53)"/><path d=" M 503.529 720.792 C 500.246 721.808 496.547 723.025 492.634 724.316 C 472.53 730.94 442.15 740.951 414.225 740.951 C 412.443 740.951 410.709 740.9 409 740.82 L 426.35 736.631 C 427.046 736.464 439.682 733.412 451.384 730.499 L 451.365 730.595 L 482.626 722.669 C 485.624 721.909 552.002 705.081 564.905 701.793 L 503.529 720.792 Z  M 595.894 581.57 C 592.806 595.533 590.276 606.984 588.19 616.432 C 585.324 615.229 582.317 613.87 579.381 612.542 C 573.046 609.671 568.042 607.405 563.649 606.303 L 560.693 605.562 L 595.894 581.57 Z  M 862.359 447.002 C 857.454 440.92 850.129 437.57 841.734 437.57 C 838.696 437.57 835.573 437.994 832.188 438.861 C 829.557 439.536 823.956 440.947 816.809 442.745 C 803.821 446.012 786.036 450.484 771.33 454.264 C 763.124 456.372 756.971 457.982 752.524 459.184 C 749.899 459.894 747.922 460.448 746.479 460.876 C 739.194 463.043 734.296 466.994 731.851 472.622 C 727.963 470.508 723.496 469.363 718.8 469.363 C 716.123 469.363 713.355 469.726 710.575 470.439 L 615.035 494.969 L 613.265 502.977 C 609.404 500.904 604.973 499.782 600.322 499.782 C 597.646 499.782 594.879 500.145 592.096 500.859 L 496.558 525.389 L 494.891 532.934 C 490.965 530.832 486.479 529.7 481.784 529.7 C 479.202 529.7 476.569 530.039 473.954 530.71 L 397.381 550.371 C 387.164 552.992 379.279 559.625 373.975 567.412 C 369.436 563.852 363.704 561.936 357.358 561.936 C 354.318 561.936 351.196 562.36 347.809 563.228 C 345.171 563.906 339.546 565.32 332.368 567.126 C 319.386 570.393 301.606 574.865 286.916 578.639 C 278.719 580.746 272.576 582.353 268.134 583.554 C 265.512 584.264 263.536 584.818 262.095 585.245 C 254.791 587.42 249.884 591.388 247.447 597.052 C 243.779 595.18 239.606 594.186 235.135 594.186 C 232.357 594.186 229.428 594.575 226.437 595.345 L 125.412 621.283 L 111.892 624.782 L 111.161 628.129 C 102.185 634.903 97.177 644.663 95.383 652.939 C 94.829 655.506 85.172 700.089 85.172 700.089 L 102.679 705.481 C 109.481 707.577 118.527 710.136 125.324 712.002 L 108.543 789.481 L 101.71 821.108 L 101.786 821.09 L 101.769 821.158 L 133.354 813.049 C 138.929 811.617 145.094 810.022 150.628 808.581 C 156.41 807.115 162.773 805.495 168.346 804.063 L 180.282 800.997 L 201.929 700.847 L 214.795 692.077 C 218.505 689.549 223.131 686.38 227.964 683.051 C 221.576 712.047 216.231 736.556 213.093 751.044 L 203.782 794.03 L 292.495 771.252 L 295.456 757.587 C 315.046 785.373 345.577 810.487 385.607 812.671 C 388.486 812.827 391.408 812.906 394.292 812.906 L 394.302 812.906 C 454.055 812.903 501.973 780.377 524.853 752.524 L 566.957 701.264 C 568.452 700.869 569.968 700.369 571.49 699.756 L 601.103 692.249 C 604.297 691.439 679.414 672.396 685.19 670.913 C 687.045 670.438 688.939 669.786 690.831 668.975 L 776.875 646.886 L 778.499 639.384 C 782.277 642.074 786.343 642.866 789.758 642.89 L 792.352 642.909 L 884.697 617.7 C 860.75 607.224 838.953 585.841 832.027 563.064 C 834.74 561.251 838.309 558.925 842.987 555.957 L 850.036 551.486 C 850.036 551.486 866.364 476.103 867.25 472.005 C 869.336 462.377 867.599 453.497 862.359 447.002 Z " fill="rgb(44,46,53)"/><path d=" M 292.756 628.894 L 283.508 671.596 C 284.428 671.361 293.457 665.281 310.588 653.355 C 316.322 649.471 319.282 647.113 319.46 646.286 L 325.022 620.61 C 325.201 619.784 324.901 619.47 324.12 619.67 L 294.196 627.354 C 293.398 627.629 292.919 628.143 292.756 628.894 Z  M 363.368 592.146 C 362.48 596.253 347.919 663.471 347.919 663.471 C 332.686 673.134 324.292 678.707 324.58 680.219 C 347.778 802.722 467.521 752.827 509.431 739.855 C 486.48 767.797 439.651 795.631 386.693 792.744 C 331.811 789.749 300.412 734.062 292.605 707.596 C 291.66 704.219 290.69 702.657 289.695 702.914 C 279.543 709.852 274.412 713.582 274.299 714.106 L 268.68 740.041 C 268.323 741.698 270.719 746.265 275.87 753.745 L 275.6 754.985 L 230.131 766.659 L 232.598 755.27 C 239.322 724.225 252.801 662.7 265.728 605.1 C 265.921 604.245 340.658 585.671 352.773 582.558 C 364.889 579.447 364.257 588.04 363.368 592.146 Z " fill="rgb(240,239,240)"/><path d=" M 777.136 504.527 L 767.885 547.229 C 768.806 546.993 777.835 540.912 794.968 528.987 C 800.699 525.104 803.66 522.746 803.838 521.918 L 809.4 496.243 C 809.579 495.417 809.279 495.103 808.497 495.303 L 778.571 502.987 C 777.775 503.264 777.297 503.776 777.136 504.527 Z  M 847.745 467.779 C 846.858 471.886 832.298 539.104 832.298 539.104 C 817.063 548.766 809.284 554.347 808.957 555.852 C 818.069 585.604 824.829 604.229 841.293 610.216 L 825.789 613.719 L 789.903 622.933 C 789.101 622.927 784.791 609.695 776.985 583.229 C 776.038 579.853 775.068 578.29 774.075 578.545 C 763.922 585.483 758.792 589.215 758.678 589.739 L 753.06 615.674 C 752.702 617.329 755.097 621.896 760.247 629.377 L 759.977 630.618 L 714.51 642.29 L 716.978 630.903 C 723.701 599.858 737.178 538.333 750.107 480.733 C 750.299 479.877 825.036 461.304 837.15 458.192 C 849.266 455.081 848.634 463.673 847.745 467.779 Z " fill="rgb(240,239,240)"/><path d=" M 631.875 511.25 C 631.875 511.25 706.995 491.963 715.537 489.77 C 722.625 487.951 726.97 491.672 725.008 500.717 C 723.425 508.031 720.172 523.043 720.172 523.043 L 688.517 544.618 L 692.742 525.116 L 660.296 533.446 C 659.48 533.801 659.004 534.311 658.855 534.989 L 652.994 562.055 C 652.956 562.848 653.255 563.159 653.896 562.995 L 695.747 552.25 L 689.447 581.341 L 647.593 592.087 C 646.779 592.44 646.294 592.99 646.131 593.742 L 637.281 634.598 C 637.243 635.391 637.541 635.705 638.182 635.54 L 670.195 627.319 C 670.335 627.285 676.104 600.631 677.27 595.241 C 682.047 596.441 692.982 602.167 702.51 605.86 C 702.51 605.86 698.018 626.6 696.1 635.454 C 694.183 644.303 686.046 650.089 680.23 651.582 C 674.413 653.075 596.198 672.903 596.198 672.903 L 596.345 672.228 C 598.715 661.287 598.424 662.575 631.875 511.25 Z " fill="rgb(240,239,240)"/><path d=" M 513.4 541.67 C 513.4 541.67 588.52 522.382 597.059 520.19 C 604.149 518.37 608.492 522.092 606.531 531.136 C 604.948 538.452 601.697 553.461 601.697 553.461 L 570.043 575.039 L 574.267 555.536 L 541.819 563.866 C 541.004 564.22 540.527 564.73 540.38 565.408 L 518.805 665.017 C 518.765 665.811 519.066 666.123 519.705 665.958 L 551.721 657.739 C 551.858 657.704 557.628 631.051 558.795 625.661 C 563.57 626.86 574.507 632.587 584.034 636.28 C 584.034 636.28 579.543 657.021 577.624 665.871 C 575.708 674.722 567.569 680.508 561.754 682.001 C 555.938 683.495 477.722 703.325 477.722 703.325 L 477.869 702.648 C 480.239 691.706 479.946 692.995 513.4 541.67 Z " fill="rgb(240,239,240)"/><path d=" M 231.393 614.677 C 230.975 614.784 230.44 614.92 229.817 615.081 C 214.772 618.943 142.115 637.6 130.374 640.614 C 129.333 640.88 128.769 641.026 128.769 641.026 C 128.762 641.057 128.756 641.086 128.749 641.115 C 118.666 644.581 115.524 654.231 114.89 657.156 C 114.335 659.725 108.554 686.409 108.554 686.409 C 115.846 688.654 126.199 691.569 133.553 693.559 C 135.021 687.794 137.406 676.822 139.147 668.788 C 145.96 666.851 151.883 665.12 156.136 664.027 L 128.049 793.704 C 128.049 793.704 128.182 793.67 128.413 793.611 L 128.389 793.718 C 133.964 792.286 140.131 790.691 145.661 789.252 C 151.438 787.787 157.805 786.166 163.378 784.734 L 191.425 654.975 C 196.069 653.817 201.811 652.581 208.647 651.011 C 206.911 659.038 204.553 669.957 203.554 675.586 C 212.682 669.365 225.592 660.478 234.776 654.001 C 234.776 654.001 240.555 627.317 241.111 624.748 C 241.778 621.668 242.783 611.752 231.393 614.677 Z " fill="rgb(240,239,240)"/><path d=" M 415.11 606.822 C 414.192 611.054 408.06 639.367 408.06 639.367 C 408.022 640.159 408.323 640.473 408.962 640.309 L 438.887 632.623 C 439.666 632.425 440.148 631.912 440.326 631.083 C 440.326 631.083 447.092 601.093 447.719 598.208 C 448.051 596.667 448.218 593.515 445.311 594.261 C 441.312 595.288 423.171 600.072 420.081 600.865 C 416.99 601.657 415.554 604.767 415.11 606.822 Z  M 402.342 569.701 C 410.582 567.585 472.133 551.784 478.919 550.04 C 485.701 548.299 490.093 552.676 488.648 559.345 C 487.205 566.018 456.95 708.517 456.95 708.517 C 444.026 711.833 421.666 717.232 421.666 717.232 L 433.195 664.011 C 433.374 663.181 433.071 662.87 432.293 663.067 L 402.367 670.753 C 401.553 671.108 401.075 671.617 400.928 672.295 L 389.377 725.623 L 358.754 711.917 C 358.754 711.917 375.639 637.544 386.391 587.904 C 388.058 580.207 394.101 571.816 402.342 569.701 Z " fill="rgb(240,239,240)"/><path d=" M 678.019 596.496 C 677.292 599.858 675.755 606.946 674.323 613.502 C 673.52 617.174 672.748 620.678 672.169 623.27 C 671.084 628.125 671.084 628.125 670.445 628.286 L 638.431 636.508 C 638.239 636.556 638.055 636.581 637.882 636.581 C 637.316 636.581 636.955 636.327 636.755 636.117 C 636.405 635.75 636.25 635.238 636.284 634.551 L 636.288 634.468 L 645.156 593.53 C 645.317 592.787 645.801 591.776 647.197 591.171 L 647.268 591.141 L 688.601 580.529 L 690.759 570.565 L 615.587 589.559 C 599.982 660.172 599.212 663.703 597.514 671.541 C 608.583 668.734 674.69 651.974 679.981 650.615 C 686.045 649.059 693.413 643.141 695.125 635.242 L 701.356 606.479 C 697.313 604.878 693.019 602.933 689.2 601.205 C 684.656 599.147 680.659 597.336 678.019 596.496 Z  M 808.004 556.145 L 807.927 555.894 L 807.983 555.64 C 808.184 554.716 808.553 552.997 831.411 538.485 C 831.542 537.877 831.818 536.607 832.203 534.825 L 733.566 559.75 C 726.858 590.176 721.216 616.042 717.952 631.115 L 715.826 640.924 L 759.134 629.805 L 759.181 629.585 C 752.347 619.617 751.796 616.799 752.085 615.462 L 757.703 589.527 C 757.833 588.923 757.958 588.352 773.512 577.721 L 773.657 577.622 L 773.826 577.579 C 773.978 577.54 774.132 577.521 774.283 577.521 C 775.781 577.521 776.876 579.148 777.941 582.945 C 786.586 612.254 789.393 620.035 790.288 621.804 L 825.568 612.746 L 838.046 609.927 C 823.233 602.744 816.683 584.483 808.004 556.145 Z  M 559.543 626.916 C 558.815 630.279 557.28 637.366 555.846 643.922 C 555.044 647.594 554.271 651.099 553.693 653.687 C 552.608 658.542 552.608 658.542 551.969 658.706 L 519.955 666.925 C 519.763 666.974 519.578 666.999 519.405 666.999 C 518.836 666.999 518.478 666.746 518.275 666.533 C 517.932 666.172 517.773 665.645 517.807 664.967 L 517.812 664.887 L 529.412 611.333 L 497.225 619.465 C 481.505 690.593 480.736 694.126 479.038 701.96 C 490.113 699.153 556.214 682.393 561.505 681.036 C 567.57 679.478 574.937 673.559 576.649 665.658 L 582.878 636.898 C 578.841 635.3 574.55 633.356 570.737 631.629 C 566.188 629.57 562.186 627.757 559.543 626.916 Z  M 414.225 761.906 C 364.331 761.906 333.84 734.485 323.599 680.406 C 323.249 678.557 326.292 676.015 347.032 662.853 C 347.211 662.027 347.654 659.983 348.278 657.099 L 249.649 682.021 C 242.73 713.393 236.907 740.095 233.573 755.482 L 231.449 765.291 L 274.755 754.172 L 274.803 753.954 C 267.97 743.986 267.417 741.168 267.706 739.831 L 273.324 713.896 C 273.455 713.293 273.577 712.72 289.133 702.089 L 289.277 701.991 L 289.447 701.946 C 289.598 701.907 289.752 701.888 289.906 701.888 C 291.404 701.888 292.499 703.516 293.561 707.314 C 297.451 720.5 307.161 740.82 322.74 758.307 C 335.536 772.668 357.028 790.127 386.748 791.748 C 389.249 791.882 391.786 791.952 394.293 791.952 L 394.3 791.952 C 396.988 791.952 399.658 791.862 402.311 791.706 C 421.028 786.77 439.996 781.776 459.052 776.765 C 478.703 767.374 495.155 754.696 506.427 741.853 C 504.165 742.581 501.725 743.384 499.192 744.218 C 477.816 751.262 445.514 761.906 414.225 761.906 Z  M 399.952 672.084 C 400.17 671.083 400.848 670.327 401.968 669.838 L 402.042 669.806 L 432.047 662.102 C 432.28 662.041 432.491 662.012 432.693 662.012 C 433.192 662.012 433.621 662.205 433.903 662.554 C 434.231 662.961 434.321 663.522 434.17 664.221 L 422.978 715.888 C 428.17 714.631 445.251 710.48 456.102 707.703 C 457.247 702.313 465.695 662.521 473.572 625.442 L 373.55 650.714 C 366.864 680.64 361 706.52 359.908 711.339 L 388.662 724.21 L 399.952 672.084 Z  M 129.364 792.346 L 129.742 792.253 L 129.721 792.346 C 134.863 791.023 140.398 789.59 145.417 788.283 C 150.987 786.872 157.105 785.315 162.534 783.921 L 180.799 699.416 L 147.679 707.785 L 129.364 792.346 Z " fill="rgb(144,156,165)"/></g></g></svg>